# xmcd
#
# Track frame offsets:
#	150
#	14037
#	25437
#	42325
#	59375
#	76852
#	88225
#	102547
#	118372
#	133887
#
# Disc length: 1940
#
# Revision: 2
# Processed by: cddbd v1.5.1PL0 Copyright (c) Steve Scherf et al.
# Submitted via: CDex 1.51
# Normalized: r0:DSETVAR1,TDELIM( - ),TSWAP
#
DISCID=9207920a
DTITLE=Various Artist - Ultimate Country - A Society of the Crown Collection
DYEAR=1997
DGENRE=Country
TTITLE0=Marty Stuart - Honky Tonk Crowd
TTITLE1=Patty Loveless - Timber, I'm Falling In Love
TTITLE2=Mark Chestnut - Gonna Get A Life
TTITLE3=Conway Twitty - Crazy In Love
TTITLE4=Steve Wariner - I Got Dreams
TTITLE5=Kelly Willis - Heven's Just a Sin Away
TTITLE6=Mark Collie - Born To Love You
TTITLE7=George Jones - I Don't Need Your Rockin' Chair
TTITLE8=Frazier River - Tangled Up In Texas
TTITLE9=Patsy Cline - Sweed Dreams of You
EXTD=YEAR: 1997
EXTT0=
EXTT1=
EXTT2=
EXTT3=
EXTT4=
EXTT5=
EXTT6=
EXTT7=
EXTT8=
EXTT9=
PLAYORDER=
